<?xml version="1.0" encoding="utf-8"?>
<svg xmlns="http://www.w3.org/2000/svg" viewBox="0 0 1809.443 2158.036">
<path d="M1374.664,894.322h-939.885c-80.353,0-145.493,65.139-145.493,145.493v693.711c0,80.354,65.139,145.493,145.493,145.493h939.885c80.353,0,145.493-65.139,145.493-145.493v-693.711c0,-80.354, -65.14,-145.493,-145.493,-145.493zm-407.013,505.003c1.166,4.857,1.801,9.915,1.801,15.117v124.451c0,35.832-29.317,65.148-65.148,65.148c-35.832,0-65.149-29.317-65.149-65.148v-124.451c0-5.356,0.668-10.562,1.902-15.551c-35.921-21.626-59.951-60.993-59.951-105.976c0-68.271,55.345-123.615,123.615-123.615c68.271,0,123.615,55.344,123.615,123.615c0,45.288,-24.358,84.88,-60.685,106.41zm82.541,-1095.847c-46.481-16.909-94.021-24.534-142.199-24.459c-48.178-0.075-102.262,7.55-148.743,24.459c-216.571,78.787-295.237,273.21-284.399,530.585h179.785c-10.095-177.358,35.728-296.867,147.728-347.915c64.887-29.574,139.826-29.574,204.713,0c112,51.047,157.823,170.556,147.728,347.915h179.785c10.839,-257.375,-67.826,-451.798,-284.398,-530.585z" fill="hsl(0,0%,20%,0.2)"/>
</svg>
