<?xml version="1.0" encoding="utf-8"?>
<!-- CC0: adapted from https://www.kisscc0.com/clipart/padlock-f4ss4d/ -->
<svg xmlns="http://www.w3.org/2000/svg" viewBox="0 0 1809 2158">
<path d="M1375,894h-940c-81,0-146,65-146,146v694c0,80,65,145,146,145h940c80,0,145-65,145-145v-694c0-81-65-146-145-146zm-407,505c1,5,1,10,1,15v125c0,36-29,65-65,65c-36,0-65-29-65-65v-125c0-5,1-10,2-15c-36-22-60-61-60-106c0-68,55-124,124-124c68,0,123,56,123,124c0,45-24,85-60,106zm82-1096c-46-16-94-24-142-24c-48,0-102,8-149,24c-216,79-295,274-284,531h180c-10-177,35-297,147-348c65-29,140-29,205,0c112,51,158,171,148,348h180c10-257-68-452-285-531z" fill="hsl(0,0%,50%,0.2)"/>
</svg>
